# xmcd CD database file
#
# Track frame offsets:
#	150
#	26995
#	51903
#	97454
#	126638
#	154813
#	197231
#	222058
#	234741
#	252932
#
# Disc length: 3722 seconds
#
# Revision: 0
# Processed by: cddbd v1.5.2PL0 Copyright (c) Steve Scherf et al.
# Submitted via: CDex 1.70beta2
#
DISCID=9e0e880a
DTITLE=Tomasz Stanko - Dark Eyes
DYEAR=1900
DGENRE=Jazz
TTITLE0=So Nice
TTITLE1=Terminal 7
TTITLE2=The Dark Eyes Of Martha Hirsch
TTITLE3=Grand Central
TTITLE4=Amsterdam Avenue
TTITLE5=Samba Nova
TTITLE6=Dirge For Europe
TTITLE7=May Sun
TTITLE8=Last Sun
TTITLE9=Etiuda Baletowa No.3
EXTD=
EXTT0=
EXTT1=
EXTT2=
EXTT3=
EXTT4=
EXTT5=
EXTT6=
EXTT7=
EXTT8=
EXTT9=
PLAYORDER=
